<?xml version="1.0" encoding="UTF-8" standalone="no"?>
<!DOCTYPE svg PUBLIC "-//W3C//DTD SVG 1.1//EN" "http://www.w3.org/Graphics/SVG/1.1/DTD/svg11.dtd">
<!-- Created with Vectornator (http://vectornator.io/) -->
<svg height="100%" stroke-miterlimit="10" style="fill-rule:nonzero;clip-rule:evenodd;stroke-linecap:round;stroke-linejoin:round;" version="1.1" viewBox="0 0 800 1415" width="100%" xml:space="preserve" xmlns="http://www.w3.org/2000/svg" xmlns:vectornator="http://vectornator.io" xmlns:xlink="http://www.w3.org/1999/xlink">
<defs>
<clipPath id="TextBounds">
<rect height="562.725" width="441.928" x="-49.5228" y="-55.3677"/>
</clipPath>
<clipPath id="TextBounds_2">
<rect height="565.241" width="575.777" x="516.244" y="-38.7879"/>
</clipPath>
</defs>
<g id="Ebene-2" vectornator:layerName="Ebene 2">
<path d="M455.434 1273.42C456.674 1273.42 457.846 1273 458.948 1272.15C460.05 1271.31 461.773 1269.75 464.115 1267.48L484.32 1247.58C484.63 1247.24 484.94 1247.24 485.25 1247.58L505.455 1267.48C507.798 1269.72 509.511 1271.27 510.597 1272.13C511.682 1272.99 512.862 1273.42 514.136 1273.42C515.859 1273.42 517.202 1272.87 518.167 1271.77C519.131 1270.66 519.614 1269.11 519.614 1267.12L519.614 1177.41C519.614 1172.48 518.391 1168.78 515.945 1166.3C513.499 1163.82 509.847 1162.58 504.99 1162.58L464.581 1162.58C459.723 1162.58 456.071 1163.82 453.626 1166.3C451.18 1168.78 449.957 1172.48 449.957 1177.41L449.957 1267.12C449.957 1269.11 450.439 1270.66 451.404 1271.77C452.368 1272.87 453.712 1273.42 455.434 1273.42ZM459.671 1259.47C459.292 1259.81 458.939 1259.94 458.612 1259.85C458.285 1259.77 458.121 1259.47 458.121 1258.95L458.121 1177.51C458.121 1175.27 458.698 1173.58 459.852 1172.45C461.006 1171.31 462.72 1170.74 464.994 1170.74L504.628 1170.74C506.867 1170.74 508.564 1171.31 509.718 1172.45C510.872 1173.58 511.449 1175.27 511.449 1177.51L511.449 1258.95C511.449 1259.47 511.286 1259.77 510.958 1259.85C510.631 1259.94 510.278 1259.81 509.899 1259.47L487.524 1237.76C486.697 1236.97 485.784 1236.58 484.785 1236.58C483.786 1236.58 482.873 1236.97 482.046 1237.76L459.671 1259.47Z" fill="#593d89" fill-rule="evenodd" opacity="1" stroke="none"/>
<path d="M345.044 1317.27C346.154 1317.27 347.003 1316.99 347.591 1316.44C348.178 1315.88 348.567 1315.11 348.757 1314.13L358.183 1266.14L353.423 1270L388.938 1270L384.177 1266.14L393.604 1314.13C393.794 1315.11 394.183 1315.88 394.77 1316.44C395.357 1316.99 396.206 1317.27 397.317 1317.27C398.904 1317.27 399.991 1316.8 400.579 1315.84C401.166 1314.89 401.332 1313.78 401.078 1312.51L392.176 1267.19C391.89 1265.7 391.176 1264.46 390.033 1263.47C388.891 1262.49 387.605 1262 386.177 1262L356.231 1262C354.771 1262 353.478 1262.49 352.351 1263.47C351.225 1264.46 350.518 1265.7 350.233 1267.19L341.33 1312.51C341.044 1313.81 341.203 1314.93 341.806 1315.87C342.409 1316.8 343.488 1317.27 345.044 1317.27ZM355.184 1265.86L387.224 1265.86L375.37 1230.48C374.64 1228.39 373.275 1227.34 371.276 1227.34C369.117 1227.34 367.689 1228.39 366.991 1230.48L355.184 1265.86Z" fill="#593d89" fill-rule="evenodd" opacity="1" stroke="none"/>
<path d="M343.556 1167.27L377.326 1167.27C378.238 1167.27 378.989 1166.98 379.579 1166.39C380.17 1165.8 380.465 1165.08 380.465 1164.24C380.465 1163.36 380.17 1162.61 379.579 1161.98C378.989 1161.36 378.238 1161.05 377.326 1161.05L343.556 1161.05C342.645 1161.05 341.885 1161.36 341.278 1161.98C340.67 1162.61 340.366 1163.36 340.366 1164.24C340.366 1165.08 340.67 1165.8 341.278 1166.39C341.885 1166.98 342.645 1167.27 343.556 1167.27ZM343.556 1152.03L396.718 1152.03C397.629 1152.03 398.38 1151.74 398.971 1151.15C399.561 1150.56 399.857 1149.84 399.857 1149C399.857 1148.08 399.561 1147.32 398.971 1146.72C398.38 1146.11 397.629 1145.81 396.718 1145.81L343.556 1145.81C342.645 1145.81 341.885 1146.11 341.278 1146.72C340.67 1147.32 340.366 1148.08 340.366 1149C340.366 1149.84 340.67 1150.56 341.278 1151.15C341.885 1151.74 342.645 1152.03 343.556 1152.03ZM343.556 1136.79L396.718 1136.79C397.629 1136.79 398.38 1136.48 398.971 1135.86C399.561 1135.23 399.857 1134.48 399.857 1133.6C399.857 1132.76 399.561 1132.04 398.971 1131.45C398.38 1130.86 397.629 1130.57 396.718 1130.57L343.556 1130.57C342.645 1130.57 341.885 1130.86 341.278 1131.45C340.67 1132.04 340.366 1132.76 340.366 1133.6C340.366 1134.48 340.67 1135.23 341.278 1135.86C341.885 1136.48 342.645 1136.79 343.556 1136.79ZM335.556 1188.03L404.717 1188.03C410.017 1188.03 413.983 1186.72 416.615 1184.11C419.248 1181.49 420.565 1177.57 420.565 1172.34L420.565 1110.52C420.565 1105.28 419.248 1101.36 416.615 1098.75C413.983 1096.13 410.017 1094.82 404.717 1094.82L335.556 1094.82C330.257 1094.82 326.283 1096.13 323.633 1098.75C320.983 1101.36 319.658 1105.28 319.658 1110.52L319.658 1172.34C319.658 1177.57 320.983 1181.49 323.633 1184.11C326.283 1186.72 330.257 1188.03 335.556 1188.03ZM334.797 1179.88C332.569 1179.88 330.848 1179.28 329.633 1178.08C328.417 1176.88 327.81 1175.12 327.81 1172.79L327.81 1125.05C327.81 1122.72 328.417 1120.95 329.633 1119.76C330.848 1118.56 332.569 1117.96 334.797 1117.96L405.376 1117.96C407.637 1117.96 409.375 1118.56 410.59 1119.76C411.806 1120.95 412.413 1122.72 412.413 1125.05L412.413 1172.79C412.413 1175.12 411.806 1176.88 410.59 1178.08C409.375 1179.28 407.637 1179.88 405.376 1179.88L334.797 1179.88Z" fill="#593d89" fill-rule="evenodd" opacity="1" stroke="none"/>
<path d="M325.78 1030.54L443.937 1030.54C448.306 1030.54 536.662 1118.84 546.89 1128.58L546.89 1352.01C546.89 1369.43 532.769 1383.55 515.349 1383.55L325.78 1383.55C308.36 1383.55 294.239 1369.43 294.239 1352.01L294.239 1062.08C294.239 1044.66 308.36 1030.54 325.78 1030.54Z" fill="none" fill-rule="evenodd" opacity="1" stroke="#000000" stroke-linecap="round" stroke-linejoin="round" stroke-width="10"/>
<path d="M443.937 1030.54L546.89 1128.58" fill="none" fill-rule="evenodd" opacity="1" stroke="#6e657b" stroke-linecap="round" stroke-linejoin="round" stroke-width="10"/>
<path d="M546.89 1128.58L463.308 1128.58C451.248 1128.58 443.937 1119.9 443.937 1108.55L443.937 1030.54C443.937 1030.54 551.467 1128.58 546.89 1128.58Z" fill="none" fill-rule="evenodd" opacity="1" stroke="#000000" stroke-linecap="round" stroke-linejoin="round" stroke-width="10"/>
</g>
<g id="Merge-Arrow" vectornator:layerName="Merge-Arrow">
<g opacity="1">
<g opacity="1">
<path d="M420.884 988.251C420.884 965.145 420.884 759.954 420.884 759.954" fill="none" stroke="#000000" stroke-linecap="square" stroke-linejoin="miter" stroke-width="15"/>
<g fill="#000000" stroke="none">
<path d="M370.079 945.5L415.08 1000.5L420.884 1007.59L426.689 1000.5L471.689 945.5C474.312 942.294 473.839 937.569 470.633 934.946C467.428 932.323 462.702 932.796 460.079 936.002L415.08 991.002L426.689 991.002L381.689 936.002C379.066 932.796 374.341 932.323 371.135 934.946C367.929 937.569 367.457 942.295 370.079 945.5Z" fill="#000000"/>
</g>
</g>
<path d="M420.884 759.954C420.884 759.954 296.352 733.424 227.657 652.632C217.862 641.112 209.202 628.489 201.553 615.311C195.943 605.648 190.878 595.686 186.306 585.643C153.393 513.333 146.106 436.788 146.106 436.788" fill="none" fill-rule="evenodd" opacity="1" stroke="#000000" stroke-linecap="round" stroke-linejoin="round" stroke-width="15"/>
<path d="M420.884 760.365C420.884 760.365 545.417 733.834 614.111 653.043C623.907 641.523 632.566 628.899 640.216 615.722C645.825 606.058 650.891 596.096 655.462 586.053C688.376 513.743 695.663 437.199 695.663 437.199" fill="none" fill-rule="evenodd" opacity="1" stroke="#000000" stroke-linecap="round" stroke-linejoin="round" stroke-width="15"/>
</g>
</g>
<g id="iPad" vectornator:layerName="iPad">
<g opacity="1">
<path clip-path="url(#TextBounds)" d="M1.05333 354.122C1.05333 370.126 5.27369 382.319 13.7144 390.701C22.1552 399.083 34.3691 403.273 50.3563 403.273L247.654 403.273C263.639 403.273 275.852 399.083 284.292 390.701C292.733 382.319 296.953 370.126 296.953 354.122L296.953 50.0504C296.953 34.0295 292.733 21.8329 284.292 13.4606C275.852 5.08823 263.639 0.902056 247.654 0.902056L50.3563 0.902056C34.3691 0.902056 22.1552 5.08823 13.7144 13.4606C5.27369 21.8329 1.05333 34.0295 1.05333 50.0504L1.05333 354.122ZM12.1253 353.387L12.1253 50.789C12.1253 38.0337 15.4204 28.3752 22.0105 21.8135C28.6006 15.2517 38.3028 11.9709 51.117 11.9709L246.918 11.9709C259.713 11.9709 269.411 15.2517 276.012 21.8135C282.613 28.3752 285.913 38.0337 285.913 50.789L285.913 353.387C285.913 366.142 282.613 375.8 276.012 382.36C269.411 388.921 259.713 392.202 246.918 392.202L51.117 392.202C38.3028 392.202 28.6006 388.921 22.0105 382.36C15.4204 375.8 12.1253 366.142 12.1253 353.387ZM97.7309 377.658L200.134 377.658C201.544 377.658 202.745 377.166 203.738 376.184C204.731 375.201 205.228 373.996 205.228 372.567C205.228 371.138 204.731 369.932 203.738 368.948C202.745 367.965 201.544 367.473 200.134 367.473L97.7309 367.473C96.3211 367.473 95.1197 367.965 94.1265 368.948C93.1334 369.932 92.6368 371.138 92.6368 372.567C92.6368 373.996 93.1334 375.201 94.1265 376.184C95.1197 377.166 96.3211 377.658 97.7309 377.658Z" fill="#000000" fill-rule="evenodd" opacity="1" stroke="none"/>
</g>
</g>
<g id="Ebene-3" vectornator:layerName="Ebene 3">
<path d="M199.813 220.078C200.529 220.078 201.205 219.834 201.842 219.346C202.478 218.859 203.473 217.959 204.826 216.646L216.494 205.157C216.673 204.958 216.852 204.958 217.031 205.157L228.699 216.646C230.051 217.939 231.041 218.834 231.668 219.331C232.294 219.829 232.976 220.078 233.712 220.078C234.706 220.078 235.482 219.759 236.039 219.123C236.596 218.486 236.875 217.591 236.875 216.437L236.875 164.633C236.875 161.789 236.169 159.65 234.756 158.218C233.344 156.785 231.235 156.069 228.43 156.069L205.095 156.069C202.289 156.069 200.181 156.785 198.768 158.218C197.356 159.65 196.65 161.789 196.65 164.633L196.65 216.437C196.65 217.591 196.928 218.486 197.485 219.123C198.042 219.759 198.818 220.078 199.813 220.078ZM202.26 212.021C202.041 212.219 201.837 212.294 201.648 212.244C201.459 212.195 201.364 212.021 201.364 211.722L201.364 164.693C201.364 163.4 201.698 162.425 202.364 161.769C203.031 161.112 204.02 160.784 205.333 160.784L228.221 160.784C229.514 160.784 230.494 161.112 231.16 161.769C231.827 162.425 232.16 163.4 232.16 164.693L232.16 211.722C232.16 212.021 232.066 212.195 231.877 212.244C231.688 212.294 231.484 212.219 231.265 212.021L218.344 199.487C217.866 199.03 217.339 198.801 216.762 198.801C216.185 198.801 215.658 199.03 215.181 199.487L202.26 212.021Z" fill="#593d89" fill-rule="evenodd" opacity="1" stroke="none"/>
<path d="M74.2641 286.159C74.9359 286.159 75.4494 285.991 75.8045 285.655C76.1596 285.319 76.3947 284.854 76.5099 284.259L82.2109 255.236L79.3316 257.568L100.811 257.568L97.9318 255.236L103.633 284.259C103.748 284.854 103.983 285.319 104.338 285.655C104.693 285.991 105.207 286.159 105.879 286.159C106.838 286.159 107.496 285.871 107.851 285.295C108.206 284.72 108.307 284.048 108.153 283.28L102.769 255.869C102.596 254.967 102.164 254.218 101.473 253.623C100.782 253.028 100.005 252.731 99.1411 252.731L81.0304 252.731C80.1474 252.731 79.3652 253.028 78.6838 253.623C78.0023 254.218 77.5752 254.967 77.4025 255.869L72.0182 283.28C71.8455 284.067 71.9414 284.744 72.3061 285.31C72.6708 285.876 73.3235 286.159 74.2641 286.159ZM80.3969 255.063L99.7745 255.063L92.6051 233.67C92.1636 232.403 91.3382 231.769 90.1289 231.769C88.8236 231.769 87.9599 232.403 87.5376 233.67L80.3969 255.063Z" fill="#593d89" fill-rule="evenodd" opacity="1" stroke="none"/>
<path d="M76.0373 119.797L96.4335 119.797C96.9839 119.797 97.4375 119.619 97.7943 119.262C98.151 118.905 98.3294 118.472 98.3294 117.962C98.3294 117.432 98.151 116.979 97.7943 116.602C97.4375 116.224 96.9839 116.036 96.4335 116.036L76.0373 116.036C75.4869 116.036 75.0282 116.224 74.6612 116.602C74.2943 116.979 74.1108 117.432 74.1108 117.962C74.1108 118.472 74.2943 118.905 74.6612 119.262C75.0282 119.619 75.4869 119.797 76.0373 119.797ZM76.0373 110.593L108.145 110.593C108.696 110.593 109.149 110.414 109.506 110.058C109.863 109.701 110.041 109.268 110.041 108.758C110.041 108.208 109.863 107.749 109.506 107.382C109.149 107.015 108.696 106.832 108.145 106.832L76.0373 106.832C75.4869 106.832 75.0282 107.015 74.6612 107.382C74.2943 107.749 74.1108 108.208 74.1108 108.758C74.1108 109.268 74.2943 109.701 74.6612 110.058C75.0282 110.414 75.4869 110.593 76.0373 110.593ZM76.0373 101.389L108.145 101.389C108.696 101.389 109.149 101.2 109.506 100.823C109.863 100.446 110.041 99.9921 110.041 99.462C110.041 98.9524 109.863 98.5192 109.506 98.1624C109.149 97.8057 108.696 97.6273 108.145 97.6273L76.0373 97.6273C75.4869 97.6273 75.0282 97.8057 74.6612 98.1624C74.2943 98.5192 74.1108 98.9524 74.1108 99.462C74.1108 99.9921 74.2943 100.446 74.6612 100.823C75.0282 101.2 75.4869 101.389 76.0373 101.389ZM71.2058 132.335L112.977 132.335C116.177 132.335 118.573 131.545 120.163 129.965C121.753 128.385 122.548 126.015 122.548 122.855L122.548 85.518C122.548 82.3582 121.753 79.9883 120.163 78.4084C118.573 76.8284 116.177 76.0385 112.977 76.0385L71.2058 76.0385C68.0052 76.0385 65.6047 76.8284 64.0044 78.4084C62.4041 79.9883 61.604 82.3582 61.604 85.518L61.604 122.855C61.604 126.015 62.4041 128.385 64.0044 129.965C65.6047 131.545 68.0052 132.335 71.2058 132.335ZM70.7471 127.411C69.4016 127.411 68.3619 127.049 67.6281 126.326C66.8942 125.602 66.5272 124.537 66.5272 123.13L66.5272 94.2942C66.5272 92.8875 66.8942 91.8224 67.6281 91.0987C68.3619 90.375 69.4016 90.0131 70.7471 90.0131L113.374 90.0131C114.74 90.0131 115.79 90.375 116.524 91.0987C117.258 91.8224 117.625 92.8875 117.625 94.2942L117.625 123.13C117.625 124.537 117.258 125.602 116.524 126.326C115.79 127.049 114.74 127.411 113.374 127.411L70.7471 127.411Z" fill="#593d89" fill-rule="evenodd" opacity="1" stroke="none"/>
</g>
<clipPath id="ArtboardFrame">
<rect height="1415" width="800" x="0" y="0"/>
</clipPath>
<g clip-path="url(#ArtboardFrame)" id="iPhone" vectornator:layerName="iPhone">
<g opacity="1">
<path clip-path="url(#TextBounds_2)" d="M636.477 404.306L755.138 404.306C770.164 404.306 781.48 400.48 789.086 392.828C796.692 385.177 800.496 373.877 800.496 358.929L800.496 77.86C800.496 62.9311 796.692 51.6067 789.086 43.8866C781.48 36.1665 770.164 32.3065 755.138 32.3065L636.477 32.3065C621.546 32.3065 610.249 36.1665 602.586 43.8866C594.923 51.6067 591.091 62.9311 591.091 77.86L591.091 358.929C591.091 373.877 594.923 385.177 602.586 392.828C610.249 400.48 621.546 404.306 636.477 404.306ZM637.213 393.269C625.108 393.269 616.268 390.491 610.694 384.936C605.121 379.381 602.334 370.581 602.334 358.535L602.334 78.0809C602.334 66.0347 605.121 57.2342 610.694 51.6793C616.268 46.1244 625.108 43.3469 637.213 43.3469L754.374 43.3469C766.479 43.3469 775.352 46.1244 780.994 51.6793C786.635 57.2342 789.455 66.0347 789.455 78.0809L789.455 358.535C789.455 370.581 786.635 379.381 780.994 384.936C775.352 390.491 766.479 393.269 754.374 393.269L637.213 393.269ZM648.285 381.026L743.359 381.026C744.769 381.026 745.97 380.505 746.963 379.463C747.957 378.422 748.453 377.245 748.453 375.932C748.453 374.503 747.957 373.268 746.963 372.228C745.97 371.187 744.769 370.667 743.359 370.667L648.285 370.667C646.856 370.667 645.65 371.187 644.666 372.228C643.682 373.268 643.191 374.503 643.191 375.932C643.191 377.245 643.682 378.422 644.666 379.463C645.65 380.505 646.856 381.026 648.285 381.026ZM652.669 58.4967L738.947 58.4967C741.817 58.4967 744.119 57.6008 745.852 55.8092C747.586 54.0175 748.453 51.6761 748.453 48.785L748.453 43.3469L643.191 43.3469L643.191 48.785C643.191 51.6761 644.053 54.0175 645.777 55.8092C647.501 57.6008 649.799 58.4967 652.669 58.4967Z" fill="#000000" fill-rule="evenodd" opacity="1" stroke="none"/>
</g>
</g>
<g id="Ebene-1" vectornator:layerName="Ebene 1">
<path d="M730.099 243.833C730.638 243.833 731.147 243.649 731.626 243.283C732.105 242.916 732.853 242.239 733.871 241.251L742.65 232.607C742.784 232.457 742.919 232.457 743.054 232.607L751.832 241.251C752.85 242.224 753.595 242.897 754.066 243.272C754.538 243.646 755.05 243.833 755.604 243.833C756.352 243.833 756.936 243.593 757.355 243.114C757.774 242.635 757.984 241.962 757.984 241.094L757.984 202.118C757.984 199.978 757.452 198.369 756.39 197.291C755.327 196.214 753.74 195.675 751.63 195.675L734.073 195.675C731.963 195.675 730.376 196.214 729.313 197.291C728.251 198.369 727.719 199.978 727.719 202.118L727.719 241.094C727.719 241.962 727.929 242.635 728.348 243.114C728.767 243.593 729.351 243.833 730.099 243.833ZM731.94 237.771C731.776 237.921 731.622 237.977 731.48 237.939C731.338 237.902 731.267 237.771 731.267 237.546L731.267 202.163C731.267 201.19 731.517 200.457 732.019 199.963C732.52 199.469 733.265 199.222 734.253 199.222L751.473 199.222C752.446 199.222 753.183 199.469 753.684 199.963C754.186 200.457 754.436 201.19 754.436 202.163L754.436 237.546C754.436 237.771 754.365 237.902 754.223 237.939C754.081 237.977 753.928 237.921 753.763 237.771L744.042 228.341C743.682 227.997 743.286 227.825 742.852 227.825C742.418 227.825 742.021 227.997 741.662 228.341L731.94 237.771Z" fill="#593d89" fill-rule="evenodd" opacity="1" stroke="none"/>
<path d="M667.005 280.307C667.487 280.307 667.856 280.186 668.111 279.945C668.367 279.703 668.536 279.369 668.618 278.941L672.714 258.091L670.645 259.767L686.076 259.767L684.008 258.091L688.103 278.941C688.186 279.369 688.355 279.703 688.61 279.945C688.865 280.186 689.234 280.307 689.717 280.307C690.406 280.307 690.878 280.1 691.133 279.686C691.389 279.272 691.461 278.79 691.351 278.238L687.483 258.546C687.359 257.898 687.048 257.36 686.552 256.933C686.055 256.505 685.497 256.292 684.876 256.292L671.866 256.292C671.231 256.292 670.669 256.505 670.18 256.933C669.69 257.36 669.384 257.898 669.259 258.546L665.391 278.238C665.267 278.803 665.336 279.29 665.598 279.696C665.86 280.103 666.329 280.307 667.005 280.307ZM671.411 257.967L685.331 257.967L680.181 242.598C679.864 241.688 679.271 241.233 678.402 241.233C677.464 241.233 676.844 241.688 676.54 242.598L671.411 257.967Z" fill="#593d89" fill-rule="evenodd" opacity="1" stroke="none"/>
<path d="M665.325 184.26L679.998 184.26C680.394 184.26 680.72 184.132 680.977 183.875C681.233 183.619 681.362 183.307 681.362 182.94C681.362 182.559 681.233 182.233 680.977 181.962C680.72 181.69 680.394 181.555 679.998 181.555L665.325 181.555C664.929 181.555 664.599 181.69 664.336 181.962C664.072 182.233 663.94 182.559 663.94 182.94C663.94 183.307 664.072 183.619 664.336 183.875C664.599 184.132 664.929 184.26 665.325 184.26ZM665.325 177.639L688.423 177.639C688.819 177.639 689.145 177.511 689.402 177.254C689.659 176.997 689.787 176.686 689.787 176.319C689.787 175.923 689.659 175.593 689.402 175.329C689.145 175.065 688.819 174.933 688.423 174.933L665.325 174.933C664.929 174.933 664.599 175.065 664.336 175.329C664.072 175.593 663.94 175.923 663.94 176.319C663.94 176.686 664.072 176.997 664.336 177.254C664.599 177.511 664.929 177.639 665.325 177.639ZM665.325 171.018L688.423 171.018C688.819 171.018 689.145 170.882 689.402 170.611C689.659 170.339 689.787 170.013 689.787 169.632C689.787 169.265 689.659 168.954 689.402 168.697C689.145 168.44 688.819 168.312 688.423 168.312L665.325 168.312C664.929 168.312 664.599 168.44 664.336 168.697C664.072 168.954 663.94 169.265 663.94 169.632C663.94 170.013 664.072 170.339 664.336 170.611C664.599 170.882 664.929 171.018 665.325 171.018ZM661.85 193.279L691.899 193.279C694.201 193.279 695.924 192.711 697.068 191.575C698.212 190.438 698.784 188.733 698.784 186.46L698.784 159.601C698.784 157.328 698.212 155.623 697.068 154.486C695.924 153.35 694.201 152.782 691.899 152.782L661.85 152.782C659.547 152.782 657.821 153.35 656.669 154.486C655.518 155.623 654.943 157.328 654.943 159.601L654.943 186.46C654.943 188.733 655.518 190.438 656.669 191.575C657.821 192.711 659.547 193.279 661.85 193.279ZM661.52 189.738C660.552 189.738 659.804 189.477 659.276 188.957C658.748 188.436 658.484 187.67 658.484 186.658L658.484 165.914C658.484 164.902 658.748 164.136 659.276 163.615C659.804 163.095 660.552 162.835 661.52 162.835L692.185 162.835C693.167 162.835 693.922 163.095 694.45 163.615C694.978 164.136 695.242 164.902 695.242 165.914L695.242 186.658C695.242 187.67 694.978 188.436 694.45 188.957C693.922 189.477 693.167 189.738 692.185 189.738L661.52 189.738Z" fill="#593d89" fill-rule="evenodd" opacity="1" stroke="none"/>
</g>
</svg>
